<svg xmlns="http://www.w3.org/2000/svg" xmlns:xlink="http://www.w3.org/1999/xlink" xml:space="preserve" version="1.1" style="shape-rendering:geometricPrecision;text-rendering:geometricPrecision;image-rendering:optimizeQuality;" viewBox="0 0 133 211.25" x="0px" y="0px" fill-rule="evenodd" clip-rule="evenodd"><defs><style type="text/css">
   
    .fil0 {fill:black}
    .fil1 {fill:black;fill-rule:nonzero}
   
  </style></defs><g><path class="fil0" d="M66 49c-11,-9 -5,-18 0,-22 0,0 14,11 0,22z"/><path class="fil0" d="M73 58c14,-1 16,-4 17,-15 0,0 -18,-2 -17,15z"/><path class="fil0" d="M75 71c15,4 18,0 24,-11 0,0 -19,-9 -24,11z"/><path class="fil0" d="M70 84c13,6 16,4 22,-5 0,0 -14,-11 -22,5z"/><path class="fil0" d="M94 53c14,-1 15,-5 17,-15 0,0 -18,-3 -17,15z"/><path class="fil0" d="M96 75c10,9 14,7 22,1 0,0 -10,-14 -22,-1z"/><path class="fil0" d="M80 40c10,-9 9,-13 3,-22 0,0 -15,9 -3,22z"/><path class="fil0" d="M59 58c-14,-1 -15,-4 -17,-15 0,0 18,-2 17,15z"/><path class="fil0" d="M58 71c-16,4 -19,0 -25,-11 0,0 19,-9 25,11z"/><path class="fil0" d="M62 84c-12,6 -15,4 -22,-5 0,0 14,-11 22,5z"/><path class="fil0" d="M39 53c-14,-1 -16,-5 -17,-15 0,0 18,-3 17,15z"/><path class="fil0" d="M37 75c-11,9 -14,7 -23,1 0,0 11,-14 23,-1z"/><path class="fil0" d="M53 40c-10,-9 -9,-13 -4,-22 0,0 16,9 4,22z"/><path class="fil1" d="M65 169l0 -29c-14,6 -24,14 -28,29l-3 -1c5,-16 16,-24 31,-31l0 -8c-20,9 -36,16 -40,40l-3 0c5,-27 21,-34 43,-43l0 -9c-26,14 -48,16 -51,52l-3 0c3,-39 27,-40 54,-55l0 -10c-27,22 -61,14 -62,65l-3 0c1,-55 39,-45 65,-69 0,-20 1,-27 -7,-28 0,-1 0,-2 1,-3 2,1 4,2 6,3 0,-7 1,-10 -5,-13l1 -3c1,1 3,2 4,3l0 -9 3 0 0 9c1,-1 2,-2 4,-3l1 3c-7,3 -5,6 -5,13 1,-2 4,-2 6,-3 0,1 0,2 1,3 -9,1 -7,7 -7,28 26,24 64,14 65,69l-3 0c-1,-51 -35,-43 -62,-65l0 10c27,15 51,16 54,55l-3 0c-3,-36 -26,-38 -51,-52l0 9c22,9 38,16 43,43l-3 0c-5,-24 -20,-31 -40,-40l0 8c15,7 26,15 31,31l-3 1c-5,-15 -14,-23 -28,-29l0 29 -3 0z"/><path class="fil0" d="M66 22c-11,-9 -5,-18 0,-22 0,0 14,11 0,22z"/></g><text x="0" y="184" fill="#000000" font-size="5px" font-weight="bold" font-family="'Helvetica Neue', Helvetica, Arial-Unicode, Arial, Sans-serif">Created by abdul karim</text><text x="0" y="189" fill="#000000" font-size="5px" font-weight="bold" font-family="'Helvetica Neue', Helvetica, Arial-Unicode, Arial, Sans-serif">from the Noun Project</text></svg>